<?xml version="1.0" encoding="UTF-8" standalone="no"?>
<!-- Generator: Adobe Illustrator 24.0.1, SVG Export Plug-In . SVG Version: 6.00 Build 0)  -->

<svg
   version="1.1"
   id="Layer_1"
   x="0px"
   y="0px"
   viewBox="0 0 1026.6801 254.66571"
   xml:space="preserve"
   sodipodi:docname="logo.svg"
   width="1026.6801"
   height="254.66571"
   inkscape:version="1.1 (c4e8f9e, 2021-05-24)"
   xmlns:inkscape="http://www.inkscape.org/namespaces/inkscape"
   xmlns:sodipodi="http://sodipodi.sourceforge.net/DTD/sodipodi-0.dtd"
   xmlns="http://www.w3.org/2000/svg"
   xmlns:svg="http://www.w3.org/2000/svg"><defs
   id="defs890" /><sodipodi:namedview
   id="namedview888"
   pagecolor="#ffffff"
   bordercolor="#666666"
   borderopacity="1.0"
   inkscape:pageshadow="2"
   inkscape:pageopacity="0.0"
   inkscape:pagecheckerboard="0"
   showgrid="false"
   fit-margin-top="0"
   fit-margin-left="0"
   fit-margin-right="0"
   fit-margin-bottom="0"
   inkscape:zoom="0.84538462"
   inkscape:cx="512.1929"
   inkscape:cy="127.16106"
   inkscape:window-width="1920"
   inkscape:window-height="1027"
   inkscape:window-x="960"
   inkscape:window-y="25"
   inkscape:window-maximized="0"
   inkscape:current-layer="Layer_1" />
<style
   type="text/css"
   id="style824">
	.st0{fill:#2B143E;}
	.st1{fill:url(#SVGID_1_);}
	.st2{fill:url(#SVGID_2_);}
	.st3{fill:url(#SVGID_3_);}
	.st4{fill:url(#SVGID_4_);}
	.st5{fill:url(#SVGID_5_);}
	.st6{fill:url(#SVGID_6_);}
</style>
<g
   id="g885"
   transform="translate(-136.66,-272.67429)">
	<g
   id="g863">
		<linearGradient
   id="SVGID_1_"
   gradientUnits="userSpaceOnUse"
   x1="136.6613"
   y1="407.14221"
   x2="483.64691"
   y2="407.14221">
			<stop
   offset="0"
   style="stop-color:#532677"
   id="stop826" />
			<stop
   offset="0.2058"
   style="stop-color:#4D236F"
   id="stop828" />
			<stop
   offset="0.5325"
   style="stop-color:#3C1C58"
   id="stop830" />
			<stop
   offset="0.9373"
   style="stop-color:#221032"
   id="stop832" />
			<stop
   offset="1"
   style="stop-color:#1D0E2C"
   id="stop834" />
		</linearGradient>
		<path
   class="st1"
   d="m 442.18,443.5 c 2.24,-1.87 5.14,-3.24 7.53,-4.93 5.69,-4.02 11.13,-8.45 16.09,-13.35 10.83,-10.7 21.5,-25.97 16.63,-41.94 -2.83,-9.31 -9.44,-16.81 -18.35,-20.28 -6.53,-2.54 -13.47,-4 -20.39,-4.96 -12.23,-1.71 -24.66,-1.82 -36.97,-1.14 -19.09,1.05 -38.05,4.05 -56.73,8.01 -29.95,6.35 -59.99,14.22 -88.42,25.7 -14.93,6.03 -29.66,12.6 -44.19,19.52 -21.4,10.19 -42.58,21.19 -62.37,34.27 -3.3,2.18 -6.55,4.42 -9.75,6.75 -2.86,2.09 -5.58,4.82 -8.6,6.64 0,0 105.15,-63.48 221.01,-85.7 115.86,-22.23 142.44,23 84.51,71.41 z"
   id="path837"
   style="fill:url(#SVGID_1_)" />
		<linearGradient
   id="SVGID_2_"
   gradientUnits="userSpaceOnUse"
   x1="244.58501"
   y1="366.21841"
   x2="428.31601"
   y2="366.21841">
			<stop
   offset="0"
   style="stop-color:#532677"
   id="stop839" />
			<stop
   offset="0.2058"
   style="stop-color:#4D236F"
   id="stop841" />
			<stop
   offset="0.5325"
   style="stop-color:#3C1C58"
   id="stop843" />
			<stop
   offset="0.9373"
   style="stop-color:#221032"
   id="stop845" />
			<stop
   offset="1"
   style="stop-color:#1D0E2C"
   id="stop847" />
		</linearGradient>
		<path
   class="st2"
   d="m 427,336.57 c -0.26,-2.17 0.71,-5.09 0.9,-7.27 0.5,-5.78 0.57,-11.62 0.11,-17.41 -0.7,-8.67 -2.62,-17.53 -7.02,-25.12 -3.06,-5.29 -8.08,-11.24 -14.19,-12.99 -8.8,-2.52 -18.69,-0.39 -26.95,2.95 -14.59,5.9 -26.7,16.58 -37.54,27.74 -7.4,7.62 -14.47,15.57 -21.27,23.74 -9.93,11.93 -19.27,24.34 -27.99,37.19 -10.66,15.71 -20.37,32.06 -28.94,49 -3.65,7.22 -7.09,14.54 -10.3,21.96 -1.65,3.82 -3.24,7.66 -4.77,11.53 -1.52,3.86 -2.6,8.19 -4.46,11.88 1.97,-3.92 4.05,-7.79 6.14,-11.66 5.39,-9.96 11,-19.81 16.8,-29.54 7.95,-13.34 16.27,-26.47 25.03,-39.3 9.64,-14.11 19.81,-27.87 30.82,-40.94 12.83,-15.22 27.12,-29.12 42.98,-41.15 3.56,-2.7 7.25,-5.14 11.29,-7.08 6.25,-2.99 13.36,-4.95 20.32,-3.81 9.29,1.52 15.89,8.58 20.05,16.63 5.35,10.35 7.61,22.2 8.99,33.65 z"
   id="path850"
   style="fill:url(#SVGID_2_)" />
		<radialGradient
   id="SVGID_3_"
   cx="232.83051"
   cy="492.65109"
   r="18.152599"
   gradientUnits="userSpaceOnUse">
			<stop
   offset="0"
   style="stop-color:#532677"
   id="stop852" />
			<stop
   offset="0.1077"
   style="stop-color:#4C236E"
   id="stop854" />
			<stop
   offset="0.7031"
   style="stop-color:#2A143E"
   id="stop856" />
			<stop
   offset="1"
   style="stop-color:#1D0E2C"
   id="stop858" />
		</radialGradient>
		<circle
   class="st3"
   cx="232.83"
   cy="492.64999"
   r="18.15"
   id="circle861"
   style="fill:url(#SVGID_3_)" />
	</g>
	<g
   id="g883">
		<g
   id="g881">
			<path
   class="st0"
   d="m 421.28,508.84 v 18.35 h -79.42 l -0.15,0.15 h -23.2 l 0.15,-0.15 14.09,-18.35 25.25,-32.74 11.6,-14.97 14.09,-18.2 h -65.33 v -18.35 h 79.42 23.05 l -14.24,18.35 -25.54,33.18 -11.6,14.97 -13.8,17.76 z"
   id="path865" />
			<path
   class="st0"
   d="m 540.48,527.33 h -20.55 l -9.4,-18.35 -22.46,-44.04 -22.46,44.04 -9.4,18.35 h -20.55 l 9.4,-18.35 43.01,-84.41 43.01,84.41 z"
   id="path867" />
			<path
   class="st0"
   d="m 612.99,465.82 44.48,61.51 h -22.61 l -35.53,-49.03 -25.98,23.64 v 25.4 H 555 V 424.57 h 18.35 v 52.56 l 15.12,-13.8 13.65,-12.48 28.63,-26.28 h 27.16 z"
   id="path869" />
			<path
   class="st0"
   d="m 758.18,475.95 c 0,28.33 -23.05,51.38 -51.38,51.38 -28.33,0 -51.38,-23.05 -51.38,-51.38 0,-28.33 23.05,-51.38 51.38,-51.38 28.33,0 51.38,23.05 51.38,51.38 z m -18.35,0 c 0,-18.2 -14.83,-33.03 -33.03,-33.03 -18.2,0 -33.03,14.83 -33.03,33.03 0,18.2 14.83,33.03 33.03,33.03 18.2,0 33.03,-14.83 33.03,-33.03 z"
   id="path871" />
			<path
   class="st0"
   d="m 826.29,424.72 c 28.33,0 51.38,22.9 51.38,51.23 0,12.63 -4.55,24.22 -12.18,33.18 -0.88,1.03 -1.91,2.05 -2.94,3.08 -9.25,9.4 -22.02,15.12 -36.11,15.12 H 775.06 V 424.57 Z m -33.03,84.41 h 33.03 c 18.2,0 33.03,-14.83 33.03,-33.03 0,-18.2 -14.83,-33.03 -33.03,-33.03 h -33.03 z"
   id="path873" />
			<path
   class="st0"
   d="M 898.37,527.33 V 424.57 h 18.35 v 102.76 z"
   id="path875" />
			<path
   class="st0"
   d="m 1040.03,424.57 v 51.38 c 0,28.33 -23.05,51.38 -51.38,51.38 -28.33,0 -51.38,-23.05 -51.38,-51.38 v -51.38 h 18.35 v 51.38 c 0,18.2 14.83,33.03 33.03,33.03 18.2,0 33.03,-14.83 33.03,-33.03 v -51.38 z"
   id="path877" />
			<path
   class="st0"
   d="m 1163.34,424.57 v 102.76 h -18.35 v -65.47 l -18.06,13.8 -14.97,11.6 -14.97,-11.6 -18.06,-13.8 v 65.47 h -18.35 V 424.57 l 18.35,14.09 33.03,25.4 33.03,-25.4 z"
   id="path879" />
		</g>
	</g>
</g>
</svg>
